PathFileType	4	(X/Y/Z)	OpenSim_Sub10_CSStiffKnee_Magnet.trc
DataRate	CameraRate	NumFrames	NumMarkers	Units	OrigDataRate	OrigDataStartFrame	OrigNumFrames
100	100	36	8	m	100	5109	8174
Frame#	Time	torso_imu_offset_imu	pelvis_imu_offset_imu	tibia_r_imu_offset_imu	femur_r_imu_offset_imu	tibia_l_imu_offset_imu	femur_l_imu_offset_imu	toes_r_imu_offset_imu	toes_l_imu_offset_imu
				X1	Y1	Z1	X2	Y2	Z2	X3	Y3	Z3	X4	Y4	Z4	X5	Y5	Z5	X6	Y6	Z6	X7	Y7	Z7	X8		Y8	Z8	

5109	51.08000000	-0.94824312	0.04126702	0.16936291	-0.56387429	-0.09352393	-0.78422281	-0.62650510	-0.62394588	-0.21991063	-0.57777567	-0.57738995	0.07229584	-0.75961748	0.28835393	0.07464801	-0.72921293	0.08725010	0.16634812	-0.67193651	-0.26740964	-0.35449671	-0.60611536	-0.18940970	-0.53197292
5110	51.09000000	-0.94475205	0.03967989	0.16680065	-0.56525586	-0.08885536	-0.78373117	-0.62237494	-0.63497270	-0.21870566	-0.57228470	-0.57909804	0.06850349	-0.75731623	0.28216181	0.07320899	-0.72757336	0.08055253	0.16579561	-0.67224544	-0.27014629	-0.35499736	-0.60998023	-0.19247767	-0.53195527
5111	51.10000000	-0.94534153	0.03710938	0.15844341	-0.56837505	-0.08990160	-0.77880689	-0.61319618	-0.64475156	-0.21385475	-0.56979393	-0.57766223	0.06756751	-0.76006044	0.27645896	0.07598852	-0.72711367	0.07442619	0.17468375	-0.67175864	-0.27765504	-0.35634409	-0.60218130	-0.19529434	-0.53770420
5112	51.11000000	-0.94335751	0.03062052	0.16522978	-0.56664326	-0.08723890	-0.77590014	-0.61015413	-0.64503209	-0.21650530	-0.57116100	-0.58432077	0.06866139	-0.76075714	0.27218779	0.08538995	-0.72965903	0.06860321	0.17053028	-0.67301455	-0.28198905	-0.35350537	-0.59910477	-0.20022188	-0.53667740
5113	51.12000000	-0.94747872	0.02640439	0.16417198	-0.57043310	-0.07595425	-0.77520313	-0.59886861	-0.65445048	-0.21667351	-0.57278870	-0.58346100	0.06437768	-0.76553397	0.27071774	0.08367669	-0.72474156	0.06434056	0.16856302	-0.67418271	-0.28587463	-0.34871900	-0.59672027	-0.20463090	-0.53640902
5114	51.13000000	-0.94795043	0.02837282	0.16120386	-0.57424607	-0.07274664	-0.77473978	-0.59323606	-0.66354775	-0.21769796	-0.57064867	-0.58316617	0.05792993	-0.76807404	0.26734991	0.08707502	-0.72552782	0.05474604	0.18341452	-0.67304492	-0.29344529	-0.34647255	-0.59990575	-0.20616843	-0.53592573
5115	51.14000000	-0.94186152	0.02232262	0.15877130	-0.58107099	-0.07074125	-0.77102288	-0.58371972	-0.66328510	-0.21945912	-0.57051519	-0.58069952	0.05549479	-0.75797170	0.26974183	0.09460970	-0.72240945	0.05160446	0.18505275	-0.67660798	-0.30243518	-0.34118197	-0.59843482	-0.20907280	-0.53443632
5116	51.15000000	-0.94303104	0.01604094	0.15664768	-0.58432399	-0.06479130	-0.76344692	-0.57181403	-0.67632693	-0.21619206	-0.57731396	-0.58341274	0.05086460	-0.75693016	0.27152950	0.09708889	-0.72363060	0.05279320	0.18483082	-0.67503610	-0.30706659	-0.33786772	-0.60466973	-0.20868118	-0.52827487
5117	51.16000000	-0.94469633	0.01117089	0.15020835	-0.58876239	-0.05205125	-0.75807639	-0.56000642	-0.68441506	-0.21959387	-0.57193498	-0.58444643	0.05172112	-0.75518632	0.27371227	0.10789137	-0.71750485	0.04794495	0.18869977	-0.68299909	-0.31634727	-0.33153443	-0.60532494	-0.21611409	-0.52440371
5118	51.17000000	-0.94877698	0.00417352	0.14208388	-0.59101935	-0.04602603	-0.75581728	-0.54564404	-0.68916366	-0.22369104	-0.57178754	-0.57923607	0.04693356	-0.75395815	0.27862849	0.10898921	-0.71642559	0.04740849	0.19220210	-0.68653404	-0.31816868	-0.32579560	-0.61123360	-0.22355603	-0.51230889
5119	51.18000000	-0.94871140	-0.00043708	0.14045713	-0.59647514	-0.04471362	-0.75088426	-0.53405351	-0.69621832	-0.22779718	-0.57872650	-0.58291809	0.03947962	-0.74918775	0.28286632	0.11680551	-0.71998723	0.04251283	0.19606631	-0.69056444	-0.32333538	-0.31800328	-0.62038928	-0.22112193	-0.50645862
5120	51.19000000	-0.94866441	-0.00598129	0.13639039	-0.60181853	-0.03210623	-0.74367861	-0.51626731	-0.70765698	-0.23396957	-0.57905830	-0.57976314	0.03588301	-0.74899278	0.28736608	0.13036511	-0.71323861	0.04201028	0.20615278	-0.70171110	-0.33147031	-0.30831676	-0.63831860	-0.22367142	-0.48096685
5121	51.20000000	-0.94997680	-0.01139118	0.12680015	-0.60701071	-0.01784107	-0.73881980	-0.50044295	-0.71951952	-0.23392553	-0.58302582	-0.58005699	0.02898918	-0.74288851	0.29197046	0.14511939	-0.71050414	0.04766899	0.20881436	-0.70499277	-0.33406732	-0.29889938	-0.65675088	-0.21642864	-0.45843353
5122	51.21000000	-0.94865137	-0.01536486	0.12616862	-0.61028801	-0.00803251	-0.73413133	-0.47956852	-0.72549596	-0.22945537	-0.58835528	-0.57915951	0.02637286	-0.73661546	0.30441981	0.16040123	-0.71229572	0.05072574	0.21056449	-0.71026304	-0.34180318	-0.27851834	-0.66662558	-0.20541074	-0.44333779
5123	51.22000000	-0.95226641	-0.02018597	0.12187378	-0.61000775	-0.00140073	-0.73304215	-0.46232038	-0.74219160	-0.23534039	-0.59432016	-0.57013337	0.02564999	-0.73288099	0.30931085	0.17236005	-0.70629515	0.05068276	0.22918362	-0.72013634	-0.34742255	-0.25052957	-0.67892433	-0.20268512	-0.41957103
5124	51.23000000	-0.95091977	-0.03032105	0.11661734	-0.60973760	0.00560104	-0.73179248	-0.43701591	-0.75226851	-0.24484908	-0.60681607	-0.56425175	0.01986892	-0.72580071	0.31241945	0.17835644	-0.69891627	0.04459811	0.23194186	-0.73091267	-0.35520383	-0.21818451	-0.68655718	-0.19170680	-0.41600590
5125	51.24000000	-0.94753308	-0.03542319	0.11482054	-0.61388393	0.00774805	-0.73064649	-0.40893136	-0.75777496	-0.23877879	-0.61491560	-0.55304082	0.01176680	-0.71818257	0.32761342	0.18618862	-0.69645314	0.03413588	0.23495572	-0.73794622	-0.36608290	-0.18532175	-0.68944690	-0.18452959	-0.41387865
5126	51.25000000	-0.94310046	-0.04029858	0.11594458	-0.61965678	0.00756723	-0.72187216	-0.38726288	-0.76540278	-0.24356670	-0.62799170	-0.52950511	0.00720265	-0.70987382	0.33546786	0.19393163	-0.69319748	0.03321209	0.23907100	-0.73777536	-0.37706862	-0.13832878	-0.69130834	-0.18404785	-0.40770980
5127	51.26000000	-0.94509689	-0.05098200	0.11597848	-0.62332711	0.00552080	-0.72273564	-0.36185431	-0.77303197	-0.23853616	-0.64464861	-0.51804204	0.00450727	-0.70737068	0.34412862	0.19415971	-0.69621198	0.04010932	0.23368561	-0.74227679	-0.39304675	-0.08969978	-0.69429216	-0.18826357	-0.41154643
5128	51.27000000	-0.94119667	-0.06020281	0.11626250	-0.62910328	0.00887810	-0.71626480	-0.33926482	-0.78751511	-0.22972763	-0.66044040	-0.49803662	0.01164957	-0.70137498	0.35899039	0.19491100	-0.69625299	0.03659420	0.23128412	-0.74212777	-0.40631517	-0.02948135	-0.69099047	-0.19352166	-0.41045632
5129	51.28000000	-0.93583198	-0.05919658	0.11937945	-0.63597801	0.01278624	-0.70755466	-0.31503100	-0.79658805	-0.22577403	-0.67975756	-0.47811560	0.00781228	-0.69462029	0.36752235	0.20433071	-0.69753248	0.03414344	0.23680792	-0.73884320	-0.41510415	0.02335446	-0.68395864	-0.19130062	-0.40738810
5130	51.29000000	-0.94041762	-0.06582790	0.11927282	-0.63328452	0.01654119	-0.70809903	-0.28472269	-0.80564448	-0.21967491	-0.69704222	-0.45859112	-0.00437109	-0.69105899	0.36590589	0.21194810	-0.70085206	0.03939421	0.23872980	-0.73202095	-0.42200844	0.06765492	-0.68533220	-0.19513786	-0.41045550
5131	51.30000000	-0.93860504	-0.06976992	0.11494341	-0.63656386	0.02516947	-0.70913186	-0.26077369	-0.81021563	-0.21406145	-0.70978185	-0.43529648	-0.00724696	-0.68416334	0.36994119	0.22498990	-0.69643744	0.04008763	0.24388613	-0.71963670	-0.42797043	0.10685736	-0.68035116	-0.19798975	-0.41616368
5132	51.31000000	-0.93799688	-0.07521025	0.11307542	-0.63650253	0.03059590	-0.70423465	-0.23881378	-0.80879276	-0.21646186	-0.71844614	-0.42233341	-0.00731754	-0.68218125	0.37105918	0.23236643	-0.68898838	0.04455995	0.25190456	-0.70673672	-0.43445486	0.13819924	-0.68280951	-0.19995437	-0.41566108
5133	51.32000000	-0.93800443	-0.07779622	0.10686991	-0.63671818	0.03731842	-0.70189957	-0.21823896	-0.81099118	-0.22335080	-0.73062068	-0.40519486	-0.01781406	-0.67935822	0.37313290	0.23765191	-0.68582570	0.04851313	0.25135002	-0.69613904	-0.44801989	0.16538883	-0.68090294	-0.20428936	-0.41737120
5134	51.33000000	-0.93596953	-0.08601410	0.10925383	-0.63253175	0.04466471	-0.70935518	-0.19923911	-0.80903605	-0.23275215	-0.73991563	-0.38363779	-0.02162362	-0.67853336	0.38140494	0.24468927	-0.68134280	0.06305232	0.25990788	-0.68932095	-0.45450583	0.17430151	-0.68094211	-0.20128306	-0.42977657
5135	51.34000000	-0.93765475	-0.09255579	0.11182365	-0.63625113	0.05137662	-0.71057378	-0.18460187	-0.80610441	-0.23332670	-0.74791797	-0.36472470	-0.02285702	-0.68161361	0.38380869	0.24655810	-0.67720411	0.07732164	0.27007222	-0.68336264	-0.45838894	0.17388158	-0.68014682	-0.20038593	-0.43064294
5136	51.35000000	-0.93864253	-0.09791716	0.10835333	-0.63695754	0.05444630	-0.70971863	-0.18050727	-0.81095707	-0.23026821	-0.75387327	-0.35371282	-0.02966399	-0.67348600	0.38274442	0.25097052	-0.67726449	0.08535858	0.26686140	-0.67516886	-0.46228587	0.18236782	-0.68161312	-0.20374652	-0.42989754
5137	51.36000000	-0.93712443	-0.10411485	0.09891622	-0.63093791	0.05933904	-0.70603812	-0.17601888	-0.81472923	-0.23225902	-0.76171747	-0.33643426	-0.02993741	-0.66635205	0.38644348	0.25080769	-0.67639980	0.10130940	0.26680017	-0.66933286	-0.46528256	0.17906351	-0.68816224	-0.20301531	-0.43747719
5138	51.37000000	-0.93332360	-0.11060701	0.09553093	-0.63329633	0.06295501	-0.69844704	-0.18024255	-0.80873603	-0.25488801	-0.77437015	-0.31980424	-0.03042742	-0.66928812	0.39591528	0.24938890	-0.67512352	0.11570861	0.26556880	-0.66469784	-0.46722006	0.16965407	-0.69134804	-0.20108484	-0.44112379
5139	51.38000000	-0.93743777	-0.11830358	0.10067019	-0.63160991	0.06841091	-0.70286126	-0.19481505	-0.79993247	-0.27748918	-0.77963465	-0.29985765	-0.03549144	-0.66556860	0.39913599	0.24751176	-0.67025552	0.12213305	0.26973389	-0.66466888	-0.46510604	0.15514811	-0.69124950	-0.20515930	-0.44382541
5140	51.39000000	-0.93811688	-0.12396087	0.09474946	-0.62858529	0.07704355	-0.70461981	-0.20121600	-0.79078355	-0.29302754	-0.78453988	-0.28303654	-0.03993319	-0.66215596	0.39954482	0.24871700	-0.67416747	0.13444649	0.27772746	-0.66591154	-0.46495546	0.14551075	-0.69549949	-0.20395930	-0.44142982
5141	51.40000000	-0.93182336	-0.12291484	0.09131614	-0.63436080	0.07836410	-0.70453897	-0.22010215	-0.77836407	-0.31323766	-0.79824120	-0.26907769	-0.04022489	-0.66333414	0.40330109	0.25531016	-0.67492341	0.14620334	0.27702576	-0.66664510	-0.46100408	0.13228310	-0.70118808	-0.20267833	-0.43971275
5142	51.41000000	-0.93322017	-0.12692058	0.08895425	-0.63429465	0.08261756	-0.70605164	-0.24065036	-0.76892782	-0.33361404	-0.80249389	-0.25327072	-0.04446052	-0.66192625	0.40848404	0.26070948	-0.67144655	0.14625059	0.27718237	-0.67113662	-0.44694780	0.11295866	-0.70680454	-0.20700885	-0.43718067
5143	51.42000000	-0.93589204	-0.13573155	0.08839968	-0.63201921	0.09499625	-0.70691090	-0.25535759	-0.76602921	-0.34401596	-0.80801218	-0.23808864	-0.03524938	-0.65935853	0.40879893	0.26261476	-0.66630453	0.15404739	0.28917756	-0.68147854	-0.43980970	0.08904997	-0.71227682	-0.21084686	-0.43327998
5144	51.43000000	-0.93152175	-0.13853665	0.09059741	-0.63271652	0.10410077	-0.70335243	-0.28184869	-0.75389224	-0.35270696	-0.81224025	-0.22109985	-0.03320219	-0.65721968	0.40647171	0.25986926	-0.66489277	0.15921612	0.29570517	-0.68614315	-0.43055157	0.06221417	-0.71665685	-0.20844458	-0.43229699
